<svg width="64" height="64" viewBox="0 0 64 64" fill="none" xmlns="http://www.w3.org/2000/svg">
  <!-- Gradient Background Circle -->
  <defs>
    <linearGradient id="gradient1" x1="0%" y1="0%" x2="100%" y2="100%">
      <stop offset="0%" style="stop-color:#06b6d4;stop-opacity:1" />
      <stop offset="50%" style="stop-color:#3b82f6;stop-opacity:1" />
      <stop offset="100%" style="stop-color:#8b5cf6;stop-opacity:1" />
    </linearGradient>
  </defs>
  
  <!-- Main Circle -->
  <circle cx="32" cy="32" r="30" fill="url(#gradient1)"/>
  
  <!-- Heart Shape (Healthcare) -->
  <path d="M32 45C32 45 18 35 18 26C18 22 20.5 19.5 24 19.5C26.5 19.5 29 21 32 24C35 21 37.5 19.5 40 19.5C43.5 19.5 46 22 46 26C46 35 32 45 32 45Z" 
        fill="white" opacity="0.9"/>
  
  <!-- Pulse/Heartbeat Line -->
  <path d="M14 32 L20 32 L23 28 L26 36 L29 32 L32 32 L35 32 L38 28 L41 36 L44 32 L50 32" 
        stroke="white" 
        stroke-width="2.5" 
        stroke-linecap="round" 
        stroke-linejoin="round" 
        fill="none"
        opacity="0.95"/>
  
  <!-- Small Plus Sign (Medical) -->
  <circle cx="48" cy="16" r="8" fill="white"/>
  <path d="M48 12 L48 20 M44 16 L52 16" 
        stroke="url(#gradient1)" 
        stroke-width="2.5" 
        stroke-linecap="round"/>
</svg>
